# Blender v3.1.2 OBJ File: 'Recycler_Buildings.blend'
# www.blender.org
mtllib Building.mtl
o Cube.001
v -18.350609 2.616941 58.381084
v -18.350609 29.508831 58.381084
v -18.350609 2.616941 7.088685
v -18.350609 29.508831 7.088685
v 12.264534 2.616941 58.381084
v 12.264534 29.508831 58.381084
v 12.264534 2.616941 7.088685
v 12.264534 29.508831 7.088685
v -46.220699 0.166746 -59.999989
v -46.220699 30.166748 -59.999989
v -46.220699 0.166746 60.000015
v -46.220699 30.166748 60.000015
v 13.226824 6.646147 5.518254
v -46.220699 0.166746 33.556385
v -46.220699 30.166748 33.556385
v 28.878769 0.166746 27.058506
v 35.149872 0.166746 -11.296226
v 1.754051 6.646147 5.518254
v 19.463070 0.166746 60.000008
v 13.226824 28.837675 57.293064
v 35.149872 11.903041 -11.296226
v 38.588318 11.903041 -59.999989
v -9.504362 30.166748 -59.999989
v 1.754050 28.837675 -18.331783
v 1.754050 28.837675 2.811304
v 19.463070 11.903041 60.000008
v 13.226824 28.837673 8.225199
v 1.754051 6.646146 -21.038734
v 37.055714 11.903041 -59.999989
v 27.375261 11.903041 26.845112
v 33.747021 11.903041 -11.486512
v 18.066294 11.903041 60.000008
v 13.226822 6.646147 60.000015
v 38.588318 0.166746 -59.999989
v -9.504362 11.903041 -59.999989
v 13.226824 1.515398 5.518254
v 1.754051 1.515391 5.518254
v 1.754051 1.515393 -21.029625
v 12.766197 1.515393 -35.129482
v 33.747021 1.515391 -11.486512
v 27.375261 1.515391 26.845112
v 18.066294 1.515391 60.000008
v 13.226822 1.515391 60.000015
v -9.504362 1.515391 -59.999989
v 37.068462 1.515391 -59.999989
v 28.878769 11.903041 27.058500
v 11.757719 0.166746 60.000015
v 31.179905 0.166746 -11.296226
v 13.782049 0.166746 -59.999989
v 22.379404 0.166746 27.422564
v -46.220699 0.166746 -8.828124
v -46.220699 30.166748 -1.571311
v 38.228279 0.166746 -43.433430
v -9.504362 30.166748 -20.989447
v 38.228279 11.903041 -43.433430
v -9.504362 11.903041 -21.038734
v 36.766933 11.903041 -43.537914
v -9.504362 1.515393 -21.029625
v 36.766933 1.515391 -43.537914
v 34.192394 0.166746 -43.433430
v -46.220699 11.903041 -59.999989
v -46.220699 24.371887 -59.999989
v -46.220699 20.648100 60.000015
v -46.220699 20.648100 33.556385
v 13.782051 1.515391 -59.999989
v -9.504362 24.371887 -59.749783
v -46.220699 20.648100 -56.930923
v -9.504362 24.371887 -21.005087
v -46.220699 20.648100 -3.873813
v -46.220699 4.095358 -56.930923
v 13.226822 9.521086 56.781853
v -46.220699 4.095358 -7.877820
v -46.220699 14.294741 -59.999989
v -46.220699 4.095358 60.000015
v -46.220699 4.095358 33.556385
v 1.754051 9.521086 2.300091
v 13.226824 9.521086 8.736415
v 1.754051 9.521086 -17.820572
v -9.504362 14.294741 -59.952003
v -9.504362 14.294741 -21.032280
v 13.226824 30.166748 60.000015
v 13.226824 30.166739 5.518251
v 1.754051 22.774874 2.300091
v 1.754051 30.166748 5.518251
v 13.226824 22.774874 8.736415
v 1.754051 30.166748 -21.038734
v 1.754051 22.774874 -17.820572
v 13.226824 22.774874 56.781853
v 10.168472 28.837675 57.293064
v 10.168472 28.837673 8.225199
v -1.304302 25.700954 2.811304
v -1.304302 28.837675 2.811304
v 10.168472 25.700954 8.225201
v -1.304302 28.837675 -18.331783
v -1.304301 25.700954 -18.331787
v 10.168472 25.700954 57.293064
v 3.641420 23.569193 5.518251
v 15.114193 23.569189 5.518251
v 3.641420 23.569193 -21.038734
v 15.114193 23.569193 60.000015
v 3.641420 24.898262 2.811304
v 15.114193 24.898260 8.225201
v 3.641420 24.898262 -18.331787
v 15.114193 24.898262 57.293064
v 1.754051 8.726770 5.518254
v 1.754051 23.569193 5.518251
v 13.226824 8.726770 5.518254
v 13.226824 23.569189 5.518251
v 1.754051 8.726770 -21.038734
v 1.754051 23.569193 -21.038734
v 13.226824 23.569193 60.000015
v 13.226822 8.726770 60.000015
v -2.372756 10.840508 2.300091
v -1.859860 23.577568 2.300091
v 9.612913 10.840508 8.736415
v 9.612913 23.577568 8.736415
v -1.859859 10.840508 -17.820572
v -1.859859 23.577568 -17.820572
v 9.612913 23.577568 56.781853
v 9.612911 10.840508 56.781853
v -9.504362 11.903041 -29.962561
v -9.504362 14.294741 -29.960979
v -9.504362 30.166748 -29.950449
v -9.504362 1.515393 -29.962294
v -9.504362 26.861267 -29.954294
v -9.504362 11.903041 -51.846565
v -9.504362 14.294741 -51.869728
v -9.504362 1.515393 -51.846680
v -9.504362 30.166748 -51.852222
v -9.504362 26.861267 -51.967342
v -8.193098 14.294741 -51.869728
v -8.193098 14.271241 -30.546177
v -9.504362 26.861267 -51.967342
v -9.504362 26.861267 -29.954294
v -8.193098 11.925536 -30.547758
v -8.193098 1.515393 -30.547499
v -8.193098 11.903041 -51.846565
v -8.193098 1.515393 -51.261486
v -9.504362 24.574509 -29.955622
v -8.193098 24.888254 -30.540789
v -8.193098 24.888252 -51.363255
v -9.504362 24.574507 -51.945713
v -5.508410 25.793425 -51.967342
v -5.508410 25.793425 -29.954294
v -8.193098 11.903041 -29.962561
v -8.193098 14.294741 -29.960979
v -8.193098 1.515393 -29.962294
v -8.193098 1.515393 -51.846680
v -8.193098 11.925694 -51.261368
v -8.193098 14.271525 -51.284531
v -8.193098 24.888254 -29.955509
v -8.193098 24.888252 -51.949581
v -10.473253 14.271525 -51.284531
v -10.473253 14.271241 -30.546177
v -10.473253 11.925536 -30.547758
v -10.473253 11.925694 -51.261368
v -10.473253 1.515393 -30.547499
v -10.473253 1.515393 -51.261486
v -10.473253 24.211596 -30.540789
v -10.473253 24.211594 -51.363255
v -46.220699 27.269316 -59.999989
v 1.754051 26.867970 -21.038734
v -9.504362 27.269316 -20.997267
v -9.504362 28.497736 -29.952372
v -9.504362 27.269316 -59.874889
v -9.504362 28.497736 -51.909782
v -5.508410 28.497736 -29.952372
v -5.508410 30.166748 -29.950449
v -5.508410 30.166748 -51.852222
v -5.508410 28.497736 -51.909782
v -10.473253 26.861267 -51.967342
v -10.473253 26.861267 -29.954294
v -10.473253 28.497736 -29.952372
v -10.473253 28.497736 -51.909782
v -30.067682 2.616941 4.529995
v -30.067682 29.508831 4.529995
v -30.067682 2.616941 -18.984560
v -30.067682 29.508831 -18.984560
v 0.547458 2.616941 4.529995
v 0.547458 29.508831 4.529995
v 0.547458 2.616941 -18.984560
v 0.547458 29.508831 -18.984560
v -21.504059 1.515393 -29.953655
v -21.504059 28.740021 -29.953655
v -21.504059 1.515393 -51.503864
v -21.504059 28.740021 -51.503864
v -10.473253 1.515393 -29.953655
v -10.473253 28.740021 -29.953655
v -10.473253 1.515393 -51.503864
v -10.473253 28.740021 -51.503864
v -10.473253 1.515393 -29.962294
v -10.473253 1.515393 -51.846680
vt 0.126745 0.944046
vt 0.876153 0.944046
vt 0.876153 0.794713
vt 0.126745 0.794713
vt 0.081192 0.948081
vt 0.918764 0.948081
vt 0.918764 0.811767
vt 0.081192 0.811768
vt 0.144865 0.753620
vt 0.858033 0.753620
vt 0.858033 0.453531
vt 0.144865 0.453531
vt 0.089918 0.774258
vt 0.910038 0.774258
vt 0.910038 0.500332
vt 0.089918 0.500332
vt 0.492756 0.035554
vt 0.270999 0.035554
vt 0.272516 0.383377
vt 0.493336 0.383371
vt 0.272670 0.459921
vt 0.493411 0.459914
vt 0.493659 0.720021
vt 0.273198 0.720021
vt 0.267330 0.875142
vt 0.499989 0.875142
vt 0.499911 0.782415
vt 0.267131 0.782415
vt 0.375000 0.000000
vt 0.375000 0.250000
vt 0.625000 0.250000
vt 0.625000 0.000000
vt 0.375000 0.500000
vt 0.625000 0.500000
vt 0.375000 0.750000
vt 0.375000 1.000000
vt 0.625000 1.000000
vt 0.625000 0.750000
vt 0.125000 0.500000
vt 0.125000 0.750000
vt 0.875000 0.750000
vt 0.875000 0.500000
vt 0.000000 0.000000
vt 0.000000 0.000000
vt 0.000000 0.000000
vt 0.000000 0.000000
vt 0.000000 0.000000
vt 0.000000 0.000000
vt 0.375000 0.000000
vt 0.375000 0.250000
vt 0.625000 0.250000
vt 0.625000 0.000000
vt 0.375000 0.500000
vt 0.625000 0.500000
vt 0.375000 0.750000
vt 0.375000 1.000000
vt 0.625000 1.000000
vt 0.625000 0.750000
vt 0.125000 0.500000
vt 0.125000 0.750000
vt 0.875000 0.750000
vt 0.875000 0.500000
vt 0.375000 0.000000
vt 0.375000 0.250000
vt 0.625000 0.250000
vt 0.625000 0.000000
vt 0.375000 0.500000
vt 0.625000 0.500000
vt 0.375000 0.750000
vt 0.375000 1.000000
vt 0.625000 1.000000
vt 0.625000 0.750000
vt 0.125000 0.500000
vt 0.125000 0.750000
vt 0.875000 0.750000
vt 0.875000 0.500000
vt 0.791708 -0.224548
vt 1.009270 -0.224548
vt 1.009270 -0.136258
vt 0.791708 -0.136258
vt 0.214120 0.967396
vt 0.555517 0.967396
vt 0.555517 0.032604
vt 0.214120 0.032604
vt 0.805947 0.784171
vt 0.788413 0.739001
vt 0.721701 0.685832
vt 0.742516 0.784171
vt -0.853972 1.425187
vt -0.824929 1.397263
vt -0.824929 1.640265
vt -0.853972 1.640265
vt 0.669168 0.967396
vt 0.040729 0.967396
vt 0.040729 0.032604
vt 0.669168 0.032604
vt 0.483753 -0.224548
vt 0.502697 -0.136258
vt 0.663368 0.096646
vt 0.663368 0.172277
vt 0.708796 0.488539
vt 1.486823 -0.246121
vt 1.590592 -0.358329
vt 1.637402 -0.358329
vt 1.563459 -0.247177
vt 0.396797 0.967396
vt 0.757488 0.967396
vt 0.757488 0.030143
vt 0.396797 0.030143
vt 0.751641 0.096646
vt 0.751641 0.488539
vt 0.620339 0.172277
vt 0.651881 0.488539
vt 0.034985 0.483249
vt 0.964971 0.483249
vt 0.964971 0.410127
vt 0.034985 0.410127
vt 0.453708 0.982422
vt 0.453708 0.017578
vt 0.038954 0.017578
vt 0.038954 0.982422
vt 0.964127 0.545157
vt 0.035174 0.545157
vt 0.035174 0.622347
vt 0.964127 0.622347
vt 0.030799 0.434817
vt 0.972099 0.434817
vt 0.972099 0.354711
vt 0.030799 0.354711
vt 0.717773 0.007332
vt 0.427102 0.005786
vt 0.425660 0.992259
vt 0.716156 0.993884
vt 0.972099 0.038984
vt 0.031121 0.038984
vt 0.964971 0.033598
vt 0.034985 0.033599
vt 0.183551 0.005028
vt 0.081260 0.004939
vt 0.081119 0.991412
vt 0.182759 0.991489
vt 0.620419 0.246496
vt 0.591302 0.246496
vt 0.562185 0.488539
vt 1.626113 -0.451464
vt 1.629581 -0.490580
vt 1.677946 -0.490580
vt 1.673700 -0.451464
vt 0.703988 0.569971
vt 0.687318 0.667993
vt 0.744889 0.727978
vt 0.742908 0.624171
vt 0.770616 0.656328
vt 0.745785 0.656502
vt 0.741933 0.485023
vt 0.728751 0.485115
vt 0.679666 0.749911
vt 0.679084 0.784171
vt 0.966171 0.383371
vt 0.967600 0.030649
vt 0.499010 0.030649
vt 0.499575 0.383371
vt 0.305018 0.982422
vt 0.305018 0.017578
vt 0.724768 0.017578
vt 0.724768 0.982422
vt 0.029088 0.661155
vt 0.029088 0.968565
vt 0.965523 0.968565
vt 0.965523 0.661155
vt 0.190276 0.982422
vt 0.190276 0.017578
vt 0.541254 0.017578
vt 0.541254 0.982422
vt 0.745400 0.601599
vt 0.720096 0.601776
vt 0.965523 0.578450
vt 0.029088 0.578450
vt 0.956677 0.009652
vt 0.956677 0.996257
vt 0.533716 0.907705
vt 0.509921 0.865295
vt 0.533716 0.836839
vt 0.426521 0.484327
vt 0.509206 0.061871
vt 0.541055 0.061871
vt 0.445911 0.484327
vt 0.677946 -0.228346
vt 1.452436 -0.151711
vt 0.677946 -0.351177
vt 0.677946 -0.490580
vt 0.677946 -0.151711
vt 1.361581 -0.151711
vt 0.800785 0.862409
vt 0.787270 0.848353
vt 0.787270 0.799651
vt 0.800785 0.784867
vt 0.541055 0.472366
vt 0.530121 0.484327
vt 0.791708 -0.414523
vt 1.009270 -0.414523
vt 1.009270 -0.378083
vt 0.791708 -0.378083
vt 0.961253 0.556752
vt 0.961253 0.495784
vt 0.044041 0.502325
vt 0.044041 0.562437
vt 0.043411 0.982422
vt 0.070735 0.967396
vt 0.070735 0.032604
vt 0.043411 0.017578
vt 0.035174 0.967330
vt 0.964127 0.967330
vt 0.534762 0.893444
vt 0.534412 0.845203
vt 0.555871 0.836839
vt 0.555871 0.885217
vt 0.033243 0.459913
vt 0.266441 0.459913
vt 0.266277 0.383371
vt 0.032980 0.383371
vt 0.898587 0.705459
vt 0.898587 0.494191
vt 0.941317 0.485023
vt 0.941317 0.705459
vt 0.770879 0.693830
vt 0.873980 0.717680
vt 0.030421 0.030649
vt 0.806643 0.705459
vt 0.930635 0.711570
vt 0.919952 0.717680
vt 0.824279 0.705459
vt 0.882798 0.717680
vt 0.824279 0.510135
vt 0.034671 0.875142
vt 0.267330 0.875142
vt 0.267131 0.782415
vt 0.034352 0.782415
vt 0.297850 0.484327
vt 0.297850 0.061871
vt 0.375016 0.061871
vt 0.344828 0.484327
vt 0.965523 0.029593
vt 0.029088 0.029593
vt 0.029088 0.229980
vt 0.965523 0.229980
vt 0.876153 0.944046
vt 0.876153 0.794713
vt 0.964127 0.126412
vt 0.035174 0.126412
vt 0.035174 0.219924
vt 0.964127 0.219924
vt 0.918764 0.948081
vt 0.081192 0.948081
vt 0.450811 -0.378083
vt 0.044041 0.888533
vt 0.961253 0.887496
vt 0.961253 0.813635
vt 0.044041 0.815711
vt 0.442992 -0.414523
vt 0.806643 0.513919
vt 0.266979 0.710954
vt 0.089918 0.774258
vt 0.089918 0.500332
vt 0.858033 0.753620
vt 0.144865 0.753620
vt 0.126745 0.944046
vt 0.126745 0.794713
vt 0.030799 0.772334
vt 0.030799 0.772334
vt 0.972099 0.772334
vt 0.972099 0.772334
vt 0.344828 0.484327
vt 0.081192 0.811768
vt 0.918764 0.811767
vt 0.034985 0.968508
vt 0.964971 0.968508
vt 0.972099 0.966424
vt 0.034985 0.791340
vt 0.030799 0.966424
vt 0.964971 0.791340
vt 0.034985 0.791340
vt 0.964971 0.791340
vt 0.965523 0.229980
vt 0.029088 0.229980
vt 0.035174 0.032899
vt 0.035174 0.219924
vt 0.858033 0.453531
vt 0.144865 0.453531
vt 0.910038 0.774258
vt 0.910038 0.500332
vt 0.499639 0.459913
vt 0.966036 0.459913
vt 0.266441 0.459913
vt 0.266277 0.383371
vt 0.499911 0.782415
vt 0.965470 0.782415
vt 0.499857 0.718528
vt 0.499989 0.875142
vt 0.965307 0.875142
vt 0.576744 0.246496
vt 0.499575 0.383371
vt 0.499639 0.459913
vt 0.264715 0.030649
vt 0.562185 0.246496
vt 0.499861 0.723728
vt 0.272670 0.459921
vt 0.272516 0.383377
vt 0.493411 0.459914
vt 0.493659 0.720021
vt 0.267131 0.782415
vt 0.267131 0.782415
vt 0.267006 0.723728
vt 0.499010 0.030649
vt 0.264715 0.030649
vt 0.273198 0.720021
vt 0.499911 0.782415
vt 0.499911 0.782415
vt 0.493336 0.383371
vt 0.492756 0.035554
vt 0.270999 0.035554
vt 0.591302 0.246496
vt 0.576744 0.246496
vt 0.500067 0.967869
vt 0.965144 0.967869
vt 0.044041 0.961356
vt 0.961253 0.961356
vt 0.964127 0.032899
vt 0.034990 0.967869
vt 0.267529 0.967869
vt 0.267529 0.967869
vt 0.500067 0.967869
vt 0.499989 0.875142
vt 0.267330 0.875142
vt 0.788413 0.739001
vt 0.770879 0.693830
vn 1.0000 0.0000 0.0000
vn 0.9997 -0.0201 0.0127
vn 0.0000 0.0000 1.0000
vn 0.0000 0.0000 -1.0000
vn 0.0000 1.0000 0.0000
vn 0.0000 -1.0000 0.0000
vn 0.3195 -0.9476 0.0000
vn -1.0000 0.0000 0.0000
vn 0.9983 0.0000 0.0586
vn 0.9917 0.0000 0.1284
vn 0.9758 0.0000 0.2185
vn 0.9615 0.0000 0.2748
vn -0.9761 0.0000 -0.2175
vn -0.9628 0.0000 -0.2703
vn -0.0008 0.0012 -1.0000
vn -0.0003 0.0013 -1.0000
vn -0.0000 -0.0002 -1.0000
vn 0.0002 0.0005 -1.0000
vn -0.9916 0.0000 -0.1290
vn -0.9984 -0.0003 -0.0559
vn 0.0024 0.0100 -0.9999
vn 0.0003 0.0050 -1.0000
vn -0.9998 -0.0006 -0.0179
vn -0.0003 -0.0012 -1.0000
vn 0.9998 0.0000 0.0217
vn -0.0036 0.0013 -1.0000
vn -0.0018 0.0006 -1.0000
vn -0.0016 0.0008 -1.0000
vn -0.0024 0.0012 -1.0000
vn 0.0034 -0.0216 -0.9998
vn 0.0046 -0.0058 -1.0000
vn -0.2168 -0.9762 0.0000
vn 0.1602 0.9871 -0.0000
vn 0.9894 0.1452 -0.0000
vn 0.9699 0.2434 -0.0000
vn -0.0034 0.0011 -1.0000
vn 0.3227 0.9465 0.0041
vn 0.3430 0.9394 0.0000
vn -0.0003 -0.0086 -1.0000
vn 0.0000 -0.0048 -1.0000
vn 0.0000 -0.0003 1.0000
vn 0.0000 -0.0006 1.0000
vn 0.1302 0.9915 0.0000
vn -0.0001 -0.0006 1.0000
vn 0.0000 -0.0005 1.0000
vn -0.0006 0.0088 1.0000
vn 0.0000 0.0049 1.0000
vn -0.0000 0.0006 -1.0000
vn -0.0001 0.0005 -1.0000
vn -0.0014 -0.0099 -0.9999
vn -0.0029 -0.0109 -0.9999
vn -0.0016 -0.0095 -1.0000
vn -0.0007 -0.0095 -1.0000
vn -0.0006 -0.0083 -1.0000
vn 0.3031 -0.9529 0.0000
vn 0.3031 -0.9530 0.0000
vn 0.2845 -0.9587 0.0000
vn 0.0001 -0.0006 1.0000
vn -0.0002 -0.0007 1.0000
vn 0.0000 0.0003 -1.0000
vn -0.0011 0.0077 1.0000
vn 0.0017 -0.0216 -0.9998
vn -0.0040 0.0013 -1.0000
vn 0.0000 -0.0012 1.0000
vn 0.0000 0.0345 -0.9994
vn 0.0000 -0.0352 0.9994
vn 0.0000 0.0012 -1.0000
vn 0.2582 0.9661 0.0000
usemtl Material.Window
s 1
f 94/1/1 92/2/1 91/3/1 95/4/1
f 90/5/1 89/6/1 96/7/1 93/8/1
f 118/9/2 114/10/2 113/11/2 117/12/2
f 116/13/1 119/14/1 120/15/1 115/16/1
f 157/17/1 158/18/1 156/19/1 155/20/1
f 153/21/1 154/22/1 155/20/1 156/19/1
f 159/23/1 154/22/1 153/21/1 160/24/1
f 174/25/1 173/26/1 172/27/1 171/28/1
usemtl Material.001
s off
f 1/29/1 3/30/1 4/31/1 2/32/1
f 3/30/3 7/33/3 8/34/3 4/31/3
f 5/35/4 1/36/4 2/37/4 6/38/4
f 3/39/5 1/40/5 5/35/5 7/33/5
f 8/34/6 6/38/6 2/41/6 4/42/6
f 144/43/7 151/44/7 140/45/7
f 143/46/7 141/47/7 152/48/7
f 175/49/1 177/50/1 178/51/1 176/52/1
f 177/50/3 181/53/3 182/54/3 178/51/3
f 179/55/4 175/56/4 176/57/4 180/58/4
f 177/59/5 175/60/5 179/55/5 181/53/5
f 182/54/6 180/58/6 176/61/6 178/62/6
f 183/63/1 185/64/1 186/65/1 184/66/1
f 185/64/3 189/67/3 190/68/3 186/65/3
f 187/69/4 183/70/4 184/71/4 188/72/4
f 185/73/5 183/74/5 187/69/5 189/67/5
f 190/68/6 188/72/6 184/75/6 186/76/6
s 1
f 64/77/8 63/78/8 12/79/8 15/80/8
f 55/81/9 21/82/10 17/83/10 53/84/9
f 44/85/5 128/86/5 39/87/5 65/88/5
f 42/89/3 19/90/3 26/91/3 32/92/3
f 46/93/11 26/94/12 19/95/12 16/96/11
f 69/97/8 64/77/8 15/80/8 52/98/8
f 82/99/5 84/100/5 15/101/5
f 50/102/6 48/103/6 17/104/6 16/105/6
f 21/106/10 46/107/11 16/108/11 17/109/10
f 81/110/5 82/99/5 12/111/5
f 84/100/5 86/112/5 52/113/5
f 107/114/1 112/115/1 33/116/1 13/117/1
f 30/118/13 41/119/13 42/120/14 32/121/14
f 80/122/15 109/123/16 28/124/17 56/125/18
f 109/126/1 105/127/1 18/128/1 28/129/1
f 46/130/5 21/131/5 31/132/5 30/133/5
f 18/128/1 37/134/1 38/135/1 28/129/1
f 33/116/1 43/136/1 36/137/1 13/117/1
f 55/138/5 22/139/5 29/140/5 57/141/5
f 54/142/5 123/143/5 10/144/5 52/113/5
f 60/145/6 49/146/6 34/147/6 53/148/6
f 41/149/5 40/150/5 39/151/5 36/152/5
f 39/87/5 58/153/5 38/154/5
f 43/155/5 42/156/5 36/152/5
f 41/149/5 36/152/5 42/156/5
f 39/151/5 59/157/5 45/158/5 65/88/5
f 56/159/1 58/160/1 124/161/1 121/162/1
f 31/163/19 40/164/19 41/165/13 30/166/13
f 13/167/4 36/168/4 37/169/4 18/170/4
f 57/171/20 59/172/20 40/173/19 31/174/19
f 38/154/5 37/175/5 36/176/5 39/87/5
f 105/177/4 107/178/4 13/167/4 18/170/4
f 26/179/5 46/130/5 30/133/5 32/180/5
f 52/113/5 15/101/5 84/100/5
f 19/181/6 50/182/6 16/183/6
f 82/99/5 15/101/5 12/111/5
f 112/184/3 74/185/3 11/186/3 33/187/3
f 14/188/6 50/102/6 19/189/6
f 51/190/6 9/191/6 49/146/6 60/145/6
f 11/192/6 14/188/6 19/189/6 47/193/6
f 14/188/6 51/190/6 48/103/6 50/102/6
f 19/194/3 42/195/3 43/196/3 47/197/3
f 47/198/3 43/199/3 33/187/3 11/186/3
f 14/200/8 11/201/8 74/202/8 75/203/8
f 79/204/21 35/205/22 61/206/22 73/207/21
f 45/158/4 34/147/4 49/146/4 65/88/4
f 29/208/4 22/209/4 34/210/4 45/211/4
f 51/190/6 60/145/6 48/103/6
f 29/208/23 45/211/23 59/172/20 57/171/20
f 28/124/17 38/212/24 58/213/24 56/125/18
f 40/150/5 59/157/5 39/151/5
f 48/214/6 60/215/6 53/216/6 17/217/6
f 86/112/5 54/142/5 52/113/5
f 21/131/5 55/138/5 57/141/5 31/132/5
f 79/218/1 127/219/1 126/220/1 35/221/1
f 67/222/8 69/223/8 52/224/8 10/225/8
f 22/209/25 55/81/9 53/84/9 34/210/25
f 39/87/5 124/226/5 58/153/5
f 61/227/22 35/221/22 44/228/4 9/229/4
f 67/222/8 10/225/8 161/230/8 62/231/8
f 70/232/8 67/222/8 62/231/8 73/233/8
f 70/232/8 72/234/8 69/223/8 67/222/8
f 165/235/1 166/236/1 130/237/1 66/238/1
f 81/239/3 12/240/3 63/241/3 111/242/3
f 84/243/4 82/244/4 108/245/4 106/246/4
f 25/247/4 101/248/4 91/3/4 92/2/4
f 163/249/26 162/250/27 110/251/28 68/252/29
f 20/253/6 89/6/6 90/5/6 27/254/6
f 72/255/8 75/203/8 64/77/8 69/97/8
f 75/203/8 74/202/8 63/78/8 64/77/8
f 161/256/30 165/257/30 66/258/31 62/259/31
f 51/260/8 14/200/8 75/203/8 72/255/8
f 9/229/8 51/261/8 72/234/8 70/232/8
f 9/229/8 70/232/8 73/233/8 61/227/8
f 66/238/1 130/237/1 142/262/1
f 66/258/31 79/204/21 73/207/21 62/259/31
f 111/242/3 63/241/3 74/185/3 112/184/3
f 106/246/4 108/245/4 107/178/4 105/177/4
f 85/263/3 116/13/3 115/16/3 77/264/3
f 68/252/29 110/251/28 109/123/16 80/122/15
f 83/265/32 114/10/32 118/9/32 87/266/32
f 24/267/3 94/1/3 95/4/3 103/268/3
f 110/269/6 99/270/6 97/271/6 106/272/6
f 111/242/3 100/273/3 81/239/3
f 102/274/33 93/8/33 96/7/33 104/275/33
f 25/247/6 92/2/6 94/1/6 24/267/6
f 101/248/33 103/268/33 95/4/33 91/3/33
f 20/253/4 104/275/4 96/7/4 89/6/4
f 27/254/34 82/276/35 81/277/35 20/253/34
f 25/247/34 84/278/35 97/271/35 101/248/34
f 102/274/34 98/279/35 82/276/35 27/254/34
f 24/267/34 86/280/35 84/278/35 25/247/34
f 103/268/34 99/270/35 86/280/35 24/267/34
f 20/253/34 81/277/35 100/281/35 104/275/34
f 101/248/34 97/271/35 99/270/35 103/268/34
f 104/275/34 100/281/35 98/279/35 102/274/34
f 108/282/6 98/279/6 100/281/6 111/283/6
f 106/246/3 97/284/3 84/243/3
f 82/244/4 98/285/4 108/245/4
f 86/286/36 99/287/4 110/251/28 162/250/27
f 83/265/1 106/272/1 105/127/1 76/288/1
f 77/264/1 107/114/1 108/282/1 85/263/1
f 78/289/1 109/126/1 110/269/1 87/266/1
f 87/266/1 110/269/1 106/272/1 83/265/1
f 85/263/1 108/282/1 111/283/1 88/290/1
f 88/290/1 111/283/1 112/115/1 71/291/1
f 76/288/1 105/127/1 109/126/1 78/289/1
f 71/291/1 112/115/1 107/114/1 77/264/1
f 78/289/37 117/12/37 113/11/37 76/288/37
f 88/290/32 119/14/32 116/13/32 85/263/32
f 87/266/3 118/9/3 117/12/3 78/289/3
f 76/288/4 113/11/4 114/10/4 83/265/4
f 77/264/38 115/16/38 120/15/38 71/291/38
f 71/291/4 120/15/4 119/14/4 88/290/4
f 122/292/1 80/293/1 56/159/1 121/162/1
f 127/219/39 131/294/39 137/295/40 126/220/40
f 125/296/1 68/297/1 139/298/1
f 164/299/1 163/300/1 68/297/1 125/296/1
f 123/143/5 129/301/5 10/144/5
f 27/254/3 90/5/3 93/8/3 102/274/3
f 9/191/4 44/85/4 65/88/4 49/146/4
f 121/162/41 145/302/41 146/303/42 122/292/42
f 128/304/1 44/228/1 35/221/1 126/220/1
f 129/301/5 23/305/5 10/144/5
f 130/237/43 171/28/5 172/27/5 125/296/43
f 128/86/5 124/226/5 39/87/5
f 122/292/42 146/303/42 151/306/44 139/298/45
f 150/307/46 153/21/46 156/19/47 149/308/47
f 132/309/48 154/22/48 159/23/49 140/310/49
f 133/311/50 143/312/51 152/313/52
f 130/237/53 133/311/50 152/313/52 142/262/54
f 124/161/3 147/314/3 145/302/41 121/162/41
f 126/220/40 137/295/40 148/315/4 128/304/4
f 141/316/55 143/312/7 144/317/7 140/310/56
f 140/310/56 159/23/57 160/24/57 141/316/55
f 151/306/44 134/318/42 125/296/58 139/298/45
f 68/297/1 80/293/1 122/292/1 139/298/1
f 152/313/52 131/294/39 127/219/39 142/262/54
f 142/262/1 127/219/1 79/218/1 66/238/1
f 151/306/44 144/317/59 134/318/42
f 132/309/1 146/303/1 145/302/1 135/319/1
f 135/319/1 145/302/1 147/314/1 136/320/1
f 149/308/1 137/295/1 131/294/1 150/307/1
f 138/321/1 148/315/1 137/295/1 149/308/1
f 140/310/1 151/306/1 146/303/1 132/309/1
f 150/307/1 131/294/1 152/313/1 141/316/1
f 136/320/4 157/17/4 155/20/60 135/319/60
f 141/316/61 160/24/61 153/21/46 150/307/46
f 149/308/47 156/19/47 158/18/3 138/321/3
f 135/319/60 155/20/60 154/22/48 132/309/48
f 123/143/5 168/322/5 169/323/5 129/301/5
f 123/324/1 54/325/1 163/300/1 164/299/1
f 10/326/62 23/327/62 165/257/30 161/256/30
f 54/328/63 86/286/36 162/250/27 163/249/26
f 23/329/1 129/330/1 166/236/1 165/235/1
f 169/331/1 168/332/1 167/333/1 170/334/1
f 166/236/6 170/334/6 167/333/6 164/299/6
f 164/299/64 167/333/64 168/332/64 123/324/64
f 129/330/65 169/331/65 170/334/65 166/236/65
f 164/299/6 173/26/6 174/25/6 166/236/6
f 166/236/66 174/25/66 171/28/66 130/237/66
f 125/296/67 172/27/67 173/26/67 164/299/67
f 133/311/68 130/237/43 125/296/43 134/318/68 144/317/68 143/312/68
f 124/226/5 128/86/5 192/335/5 191/336/5
