# Blender v3.1.2 OBJ File: 'Recycler_Buildings.blend'
# www.blender.org
mtllib Building.mtl
o Cube.053_Cube.078
v -46.220699 0.166746 -59.999992
v -46.220699 30.166748 -59.999992
v -46.220699 0.166746 60.000008
v -46.220699 30.166748 60.000008
v 38.588318 0.166746 -59.999992
v 13.226826 11.903042 5.518249
v -46.220699 0.166746 33.556381
v -46.220699 30.166748 33.556381
v 28.878771 0.166746 27.058500
v 35.149868 0.166746 -11.296231
v 1.754051 11.903041 5.518250
v 19.463070 0.166746 60.000000
v 13.226826 30.166748 60.000008
v 35.149868 11.903041 -11.296231
v 38.588318 11.903041 -59.999992
v -9.504361 30.166748 -59.999992
v -9.504361 11.903041 -59.999992
v 1.754051 30.166748 -21.038736
v 1.754051 30.166748 5.518248
v 19.463070 11.903041 60.000000
v 13.226826 30.166740 5.518248
v 1.754051 11.903040 -21.038736
v 37.055717 11.903041 -59.999992
v 27.375261 11.903041 26.845106
v 33.747025 11.903041 -11.486518
v 18.066294 11.903041 60.000000
v 13.226825 11.903041 60.000008
v -46.220699 0.166746 -56.930927
v -46.220699 30.166748 -56.930927
v 38.588318 0.166746 -56.930927
v 38.588318 11.903041 -56.930927
v -9.504361 30.166748 -56.930927
v -9.504361 11.903041 -57.297413
v 37.068462 11.903041 -56.949619
v 13.226826 1.515398 5.518249
v 1.754051 1.515391 5.518250
v 1.754051 1.515391 -21.029627
v 12.766198 1.515391 -35.129490
v 33.747025 1.515391 -11.486518
v 27.375261 1.515391 26.845106
v 18.066294 1.515391 60.000000
v 13.226825 1.515391 60.000008
v -9.504361 1.515391 -57.297413
v 37.068462 1.515391 -56.949619
v 28.878771 11.903041 27.058496
v 34.768085 0.166746 -59.999992
v 11.757721 0.166746 60.000008
v 19.463070 0.166746 60.000000
v 31.179907 0.166746 -11.296231
v 34.486519 0.166746 -56.930927
v 22.379406 0.166746 27.422560
v -46.220699 0.166746 -8.828129
v -46.220699 30.166748 -1.571314
v 38.228279 0.166746 -43.433430
v -9.504361 30.166748 -20.989452
v 38.228279 11.903041 -43.433430
v -9.504361 11.903041 -21.038736
v 36.766930 11.903041 -43.537922
v -9.504361 1.515391 -21.029627
v 36.766930 1.515391 -43.537922
v 34.192398 0.166746 -43.433430
vt 0.375000 0.187931
vt 0.375000 0.250000
vt 0.625000 0.250000
vt 0.625000 0.187931
vt 0.473804 0.715680
vt 0.473804 0.687500
vt 0.375000 0.687500
vt 0.375000 0.715680
vt 0.473804 0.953700
vt 0.375000 0.762134
vt 0.375000 1.000000
vt 0.362866 0.743860
vt 0.362866 0.750000
vt 0.375000 0.750000
vt 0.375000 0.743860
vt 0.828428 0.743860
vt 0.828700 0.750000
vt 0.875000 0.750000
vt 0.875000 0.743860
vt 0.147891 0.624893
vt 0.375000 0.562069
vt 0.473804 0.562069
vt 0.147891 0.624893
vt 0.473804 0.593534
vt 0.375000 0.593534
vt 0.375000 0.062500
vt 0.375000 0.125000
vt 0.625000 0.125000
vt 0.625000 0.062500
vt 0.714287 0.625000
vt 0.821532 0.640577
vt 0.875000 0.625000
vt 0.362866 0.625000
vt 0.362866 0.687500
vt 0.375000 0.625000
vt 0.473804 0.640577
vt 0.629950 0.500000
vt 0.683164 0.560252
vt 0.875000 0.500000
vt 0.825927 0.687500
vt 0.875000 0.687500
vt 0.593159 0.125107
vt 0.593159 0.195926
vt 0.375000 0.195926
vt 0.375000 0.125107
vt 0.159087 0.656170
vt 0.159087 0.656170
vt 0.593159 0.027610
vt 0.593159 0.040722
vt 0.375000 0.037098
vt 0.375000 0.025620
vt 0.265182 0.735501
vt 0.267481 0.738358
vt 0.196240 0.738358
vt 0.195091 0.735679
vt 0.195091 0.735679
vt 0.125000 0.735857
vt 0.125000 0.735857
vt 0.593159 0.062553
vt 0.375000 0.062553
vt 0.215566 0.687447
vt 0.244084 0.709278
vt 0.184542 0.711090
vt 0.170283 0.687447
vt 0.375000 0.062553
vt 0.375000 0.037098
vt 0.375000 0.195926
vt 0.375000 0.125107
vt 0.254633 0.722390
vt 0.189817 0.723385
vt 0.593159 0.011642
vt 0.593159 0.014499
vt 0.375000 0.014143
vt 0.375000 0.011642
vt 0.375000 0.000000
vt 0.375000 0.006140
vt 0.625000 0.006140
vt 0.625000 0.000000
vt 0.827177 0.715680
vt 0.875000 0.715680
vt 0.362866 0.715680
vt 0.473804 0.750000
vt 0.473804 0.743860
vt 0.170283 0.687447
vt 0.184542 0.711090
vt 0.125000 0.712902
vt 0.125000 0.687447
vt 0.125000 0.724380
vt 0.125000 0.712902
vt 0.125000 0.554074
vt 0.125000 0.624893
vt 0.125000 0.656170
vt 0.473804 0.823572
vt 0.375000 0.025620
vt 0.375000 0.014143
vt 0.375000 0.062553
vt 0.375000 0.062553
vt 0.189817 0.723385
vt 0.125000 0.687447
vt 0.593159 0.062553
vt 0.170783 0.624893
vt 0.189656 0.650105
vt 0.362866 0.562069
vt 0.362866 0.593534
vt 0.875000 0.562069
vt 0.125000 0.562069
vt 0.125000 0.715680
vt 0.125000 0.743860
vt 0.125000 0.500000
vt 0.362866 0.500000
vt 0.125000 0.625000
vt 0.125000 0.687500
vt 0.125000 0.750000
vt 0.625000 0.953700
vt 0.625000 1.000000
vt 0.125000 0.724380
vt 0.125000 0.738358
vt 0.375000 0.034320
vt 0.625000 0.034320
vn -1.0000 0.0000 0.0000
vn 0.9981 0.0000 0.0610
vn 0.9917 0.0000 0.1284
vn 0.0000 0.0000 -1.0000
vn 0.0000 -1.0000 -0.0000
vn 0.0000 1.0000 0.0000
vn 0.0000 0.0000 1.0000
vn 0.9758 -0.0000 0.2185
vn 0.9615 -0.0000 0.2748
vn 1.0000 0.0000 0.0000
vn -0.9761 0.0000 -0.2175
vn -0.9628 0.0000 -0.2703
vn -0.0022 0.0013 -1.0000
vn -0.0011 0.0002 -1.0000
vn -0.0075 0.0000 1.0000
vn 0.9999 0.0000 0.0133
vn -0.9916 0.0000 -0.1290
vn -0.9983 0.0000 -0.0582
vn -0.9997 0.0000 -0.0225
vn 0.0000 -0.0009 -1.0000
usemtl None
s 1
f 7/1/1 3/2/1 4/3/1 8/4/1
f 56/5/2 14/6/3 10/7/3 54/8/2
f 17/9/4 46/10/4 1/11/4
f 50/12/5 46/13/5 5/14/5 30/15/5
f 32/16/6 16/17/6 2/18/6 29/19/6
f 41/20/7 12/21/7 20/22/7 26/23/7
f 45/24/8 20/22/9 12/21/9 9/25/8
f 52/26/1 7/27/1 8/28/1 53/29/1
f 21/30/6 19/31/6 8/32/6
f 51/33/5 49/34/5 10/7/5 9/35/5
f 14/6/3 45/36/8 9/35/8 10/7/3
f 13/37/6 21/38/6 4/39/6
f 19/31/6 18/40/6 53/41/6
f 21/42/10 13/43/10 27/44/10 6/45/10
f 24/46/11 40/47/11 41/20/12 26/23/12
f 55/48/13 18/49/13 22/50/14 57/51/14
f 31/52/6 15/53/6 23/54/6 34/55/6
f 44/56/15 34/55/15 33/57/15 43/58/15
f 18/49/10 19/59/10 11/60/10 22/50/10
f 45/61/6 14/62/6 25/63/6 24/64/6
f 11/60/10 36/65/10 37/66/10 22/50/10
f 27/44/10 42/67/10 35/68/10 6/45/10
f 56/69/6 31/52/6 34/55/6 58/70/6
f 16/71/10 32/72/10 33/73/10 17/74/10
f 1/75/1 28/76/1 29/77/1 2/78/1
f 55/79/6 32/16/6 29/19/6 53/80/6
f 61/81/5 50/12/5 30/15/5 54/8/5
f 15/82/10 31/83/16 30/15/16 5/14/10
f 40/84/6 39/85/6 38/86/6 35/87/6
f 38/86/6 59/88/6 37/89/6
f 42/90/6 41/20/6 35/91/6
f 40/47/6 35/92/6 41/20/6
f 17/9/4 23/93/4 46/10/4
f 57/51/10 59/94/10 43/95/10 33/73/10
f 25/63/17 39/85/17 40/84/11 24/64/11
f 6/96/4 35/97/4 36/65/4 11/60/4
f 58/70/18 60/98/18 39/85/17 25/63/17
f 37/89/6 36/99/6 35/87/6 38/86/6
f 19/59/4 21/100/4 6/96/4 11/60/4
f 20/101/6 45/102/6 24/46/6 26/23/6
f 53/41/6 8/32/6 19/31/6
f 48/103/5 51/104/5 9/25/5 12/21/5
f 21/38/6 8/105/6 4/39/6
f 13/43/7 4/3/7 3/2/7 27/44/7
f 7/106/5 51/104/5 48/103/5
f 52/107/5 28/108/5 50/12/5 61/81/5
f 3/109/5 7/106/5 48/103/5 47/110/5
f 7/111/5 52/112/5 49/34/5 51/33/5
f 48/103/7 41/20/7 42/90/7 47/110/7
f 28/108/5 1/113/5 46/13/5 50/12/5
f 47/110/7 42/67/7 27/44/7 3/109/7
f 16/114/4 17/9/4 2/115/4
f 2/115/4 17/9/4 1/11/4
f 46/10/4 23/93/4 5/14/4
f 5/14/4 23/93/4 15/82/4
f 43/58/6 38/116/6 60/98/6 44/56/6
f 52/112/5 61/81/5 49/34/5
f 34/55/19 44/56/19 60/98/18 58/70/18
f 22/50/14 37/66/20 59/94/20 57/51/14
f 39/85/6 60/98/6 38/116/6
f 34/55/6 23/54/6 17/117/6 33/57/6
f 49/34/5 61/81/5 54/8/5 10/7/5
f 18/40/6 55/79/6 53/80/6
f 14/62/6 56/69/6 58/70/6 25/63/6
f 32/72/10 55/48/10 57/51/10 33/73/10
f 28/76/1 52/118/1 53/119/1 29/77/1
f 31/83/16 56/5/2 54/8/2 30/15/16
f 38/116/6 43/58/6 59/88/6
