# Blender 4.4.3
# www.blender.org
mtllib Building.mtl
o Cube.053
v -46.220699 0.094682 -55.321110
v -46.220699 29.650162 -55.321110
v -46.220699 0.094682 55.321110
v -46.220699 29.650162 55.321110
v 38.588318 0.094682 -55.321110
v 14.715214 0.094682 55.321110
v 13.226824 11.775463 23.461184
v -46.220699 0.094682 21.410698
v -46.220699 29.650162 21.410698
v 30.159203 0.094682 0.000000
v -46.220699 0.094682 -27.660555
v 10.386234 11.775463 18.519716
v -46.220699 29.650162 -27.660555
v 35.576046 0.094682 -27.660555
v -4.843445 11.775462 17.610651
v -46.220699 29.650162 36.762882
v 23.164146 0.094682 27.851318
v -46.220699 0.094682 36.762882
v 13.226826 29.650162 55.321110
v 14.715214 11.775462 55.321110
v 35.576046 11.775462 -27.660555
v 38.588318 11.775462 -55.321110
v -4.843445 29.650162 -55.321110
v -4.843445 11.775462 -55.321110
v 7.214965 11.775462 -55.321110
v -4.843445 29.650162 -27.660555
v 8.469884 29.650154 17.610645
v 10.386234 29.650154 18.519714
v -4.843445 29.650162 17.610651
v 30.159203 11.775462 -0.000008
v 23.164146 11.775462 27.851330
v 13.226824 29.650154 23.461184
v -4.843445 11.775461 -27.908110
v 37.055717 11.775462 -55.321110
v 28.580662 11.775462 -0.200943
v 34.173199 11.775462 -27.836378
v 21.767370 11.775462 27.699923
v 13.226825 11.775462 55.321110
v -46.220699 0.094682 -52.603699
v -46.220699 29.650162 -52.603699
v 38.292389 0.094682 -52.603699
v 38.292389 11.775462 -52.603699
v -4.843445 29.650162 -52.603699
v 7.554759 11.775462 -52.942333
v -4.843445 11.775462 -52.942333
v 36.772533 11.775462 -52.620972
v 13.226824 1.387819 23.461184
v 10.386234 1.387819 18.519716
v -4.843445 1.387812 17.610651
v -4.843445 1.387813 -27.908110
v 10.673723 1.387813 -27.908110
v 34.173199 1.387812 -27.836378
v 28.580662 1.387812 -0.200943
v 21.767370 1.387812 27.699923
v 13.226825 1.387812 55.321110
v 7.554759 1.387812 -52.942333
v -4.843445 1.387812 -52.942333
v 36.772533 1.387812 -52.620972
v 1.185760 11.775462 -55.321110
v 8.469884 11.775463 17.610647
v 1.355657 11.775462 -52.942333
v 8.469884 1.387819 17.610647
v 2.915139 1.387813 -27.908110
v 1.355657 1.387812 -52.942333
v 12.145969 11.775463 20.645535
v -46.220699 0.094682 29.086790
v 26.661673 0.094682 13.925659
v -46.220699 29.650162 29.086790
v 25.233192 11.775462 13.732252
v 26.661673 11.775462 13.925661
v 12.145969 1.387819 20.645535
v 25.233192 1.387812 13.732252
v 12.145969 29.650154 20.645535
vn -1.0000 -0.0000 -0.0000
vn 0.8138 -0.0000 0.5812
vn -0.0000 -0.0000 1.0000
vn 0.9941 -0.0000 0.1083
vn 0.9890 -0.0000 0.1477
vn -0.0000 -0.0000 -1.0000
vn -0.0000 -1.0000 -0.0000
vn -0.0000 1.0000 -0.0000
vn 0.9699 -0.0000 0.2436
vn 0.9635 -0.0000 0.2677
vn 0.9762 -0.0000 0.2168
vn 0.9904 -0.0000 -0.1380
vn 1.0000 -0.0000 -0.0000
vn -0.9715 -0.0000 -0.2372
vn -0.9637 -0.0000 -0.2669
vn 0.8803 -0.0000 -0.4745
vn 0.2299 -0.0000 -0.9732
vn 0.6403 -0.0000 -0.7681
vn -0.9554 -0.0000 -0.2954
vn -0.0055 -0.0000 1.0000
vn -0.0110 -0.0000 0.9999
vn -0.9890 -0.0000 -0.1482
vn -0.9765 -0.0000 -0.2155
vn -0.9945 -0.0000 -0.1043
vt 0.375000 0.187931
vt 0.625000 0.187931
vt 0.625000 0.250000
vt 0.375000 0.250000
vt 0.375000 0.500000
vt 0.625000 0.495050
vt 0.473804 0.497525
vt 0.473804 0.500000
vt 0.473804 0.743860
vt 0.375000 0.743860
vt 0.375000 0.687500
vt 0.473804 0.687500
vt 0.625000 1.000000
vt 0.375000 1.000000
vt 0.375000 0.750000
vt 0.473804 0.750000
vt 0.473804 0.823572
vt 0.473804 0.897145
vt 0.473804 0.925422
vt 0.473804 0.953700
vt 0.625000 0.953700
vt 0.125000 0.743860
vt 0.125000 0.750000
vt 0.828428 0.743860
vt 0.875000 0.743860
vt 0.875000 0.750000
vt 0.828700 0.750000
vt 0.699447 0.593534
vt 0.875000 0.593534
vt 0.875000 0.625000
vt 0.714287 0.625000
vt 0.125000 0.593534
vt 0.375000 0.593534
vt 0.375000 0.625000
vt 0.125000 0.625000
vt 0.473804 0.593534
vt 0.375000 0.562069
vt 0.473804 0.562069
vt 0.375000 0.062500
vt 0.625000 0.062500
vt 0.625000 0.125000
vt 0.375000 0.125000
vt 0.375000 0.006140
vt 0.625000 0.006140
vt 0.875000 0.687500
vt 0.825927 0.687500
vt 0.821532 0.640577
vt 0.767909 0.632789
vt 0.125000 0.687500
vt 0.473804 0.640577
vt 0.473804 0.500000
vt 0.125000 0.500000
vt 0.125000 0.562069
vt 0.629950 0.500000
vt 0.875000 0.500000
vt 0.875000 0.562069
vt 0.683164 0.560252
vt 0.375000 0.156466
vt 0.625000 0.156466
vt 0.593159 0.125107
vt 0.375000 0.125107
vt 0.375000 0.195926
vt 0.593159 0.195926
vt 0.159087 0.656170
vt 0.147891 0.624893
vt 0.126519 0.554074
vt 0.170783 0.624893
vt 0.128037 0.554074
vt 0.593159 0.093122
vt 0.375000 0.093830
vt 0.593159 0.123691
vt 0.593159 0.062553
vt 0.375000 0.062553
vt 0.189656 0.650105
vt 0.170283 0.687447
vt 0.208530 0.675316
vt 0.593159 0.014499
vt 0.375000 0.014143
vt 0.375000 0.037098
vt 0.593159 0.040722
vt 0.265182 0.735501
vt 0.195091 0.735679
vt 0.196240 0.738358
vt 0.267481 0.738358
vt 0.125000 0.735857
vt 0.125000 0.738358
vt 0.215566 0.687447
vt 0.184542 0.711090
vt 0.244084 0.709278
vt 0.125000 0.735857
vt 0.125000 0.735857
vt 0.593159 0.011642
vt 0.375000 0.011642
vt 0.375000 0.000000
vt 0.625000 0.000000
vt 0.125000 0.687447
vt 0.125000 0.712902
vt 0.125000 0.735857
vt 0.125000 0.712902
vt 0.125000 0.554074
vt 0.125000 0.624893
vt 0.125000 0.656170
vt 0.170783 0.624893
vt 0.473804 0.625000
vt 0.684608 0.562069
s 1
f 18/1/1 3/4/1 4/3/1 16/2/1
f 6/5/2 20/8/2 38/7/3 19/6/3 4/3/3 3/4/3
f 42/9/4 21/12/5 14/11/5 41/10/4
f 2/13/6 23/21/6 24/20/6 59/19/6 25/18/6 34/17/6 22/16/6 5/15/6 1/14/6
f 39/22/7 1/23/7 5/15/7 41/10/7
f 43/24/8 23/27/8 2/26/8 40/25/8
f 73/28/8 28/31/8 9/30/8 68/29/8
f 66/32/7 8/35/7 10/34/7 67/33/7
f 70/36/9 31/38/10 17/37/10 67/33/9
f 11/39/1 8/42/1 9/41/1 13/40/1
f 39/43/1 11/39/1 13/40/1 40/44/1
f 28/31/8 27/48/8 29/47/8 26/46/8 13/45/8 9/30/8
f 8/35/7 11/49/7 14/11/7 10/34/7
f 21/12/5 30/50/11 10/34/11 14/11/5
f 17/37/10 31/38/10 20/51/2 6/5/2
f 3/52/7 18/53/7 17/37/7 6/5/7
f 19/54/8 32/57/8 16/56/8 4/55/8
f 66/58/1 18/1/1 16/2/1 68/59/1
f 32/60/12 19/63/13 38/62/13 7/61/12
f 69/64/14 72/64/14 54/65/15 37/65/15
f 38/66/8 20/68/8 31/67/8 37/65/8
f 73/69/16 32/71/12 7/61/12 65/70/16
f 27/72/17 28/72/18 12/73/18 60/73/17
f 70/74/8 30/76/8 35/75/8 69/64/8
f 43/77/13 26/80/13 33/79/13 45/78/13
f 65/70/16 71/70/16 48/73/18 12/73/18
f 42/81/8 22/84/8 34/83/8 46/82/8
f 46/82/8 34/83/8 25/86/8 44/85/8
f 26/80/13 29/72/13 15/73/13 33/79/13
f 37/65/15 54/65/15 55/66/19 38/66/19
f 30/87/8 21/89/8 36/88/8 35/75/8
f 44/85/20 56/85/20 58/82/21 46/82/21
f 15/73/13 49/73/13 50/79/13 33/79/13
f 38/62/13 55/62/13 47/61/12 7/61/12
f 21/89/8 42/81/8 46/82/8 36/88/8
f 59/86/8 24/86/8 45/91/8 61/90/8
f 23/92/13 43/77/13 45/78/13 24/93/13
f 1/94/1 39/43/1 40/44/1 2/95/1
f 26/46/8 43/24/8 40/25/8 13/45/8
f 11/49/7 39/22/7 41/10/7 14/11/7
f 22/16/4 42/9/4 41/10/4 5/15/4
f 53/75/8 52/88/8 51/97/8 48/96/8
f 64/98/8 57/91/8 50/97/8 63/99/8
f 63/99/8 62/96/8 48/96/8 51/97/8
f 55/100/8 54/65/8 47/101/8
f 72/64/8 71/102/8 47/101/8 54/65/8
f 52/88/8 58/82/8 56/85/8 51/97/8
f 33/79/13 50/79/13 57/78/13 45/78/13
f 36/88/22 52/88/22 53/75/23 35/75/23
f 60/73/17 62/73/17 49/73/6 15/73/6
f 61/90/3 64/98/3 56/85/20 44/85/20
f 46/82/24 58/82/24 52/88/22 36/88/22
f 45/91/3 57/91/3 64/98/3 61/90/3
f 12/73/18 48/73/18 62/73/17 60/73/17
f 50/97/8 49/96/8 62/96/8 63/99/8
f 56/85/8 64/98/8 63/99/8 51/97/8
f 25/86/8 59/86/8 61/90/8 44/85/8
f 29/72/6 27/72/17 60/73/17 15/73/6
f 53/75/8 48/96/8 71/102/8 72/64/8
f 7/61/12 47/61/12 71/70/16 65/70/16
f 31/103/8 70/74/8 69/64/8 37/65/8
f 28/72/18 73/69/16 65/70/16 12/73/18
f 35/75/23 53/75/23 72/64/14 69/64/14
f 8/42/1 66/58/1 68/59/1 9/41/1
f 30/104/11 70/36/9 67/33/9 10/34/11
f 18/53/7 66/32/7 67/33/7 17/37/7
f 32/105/8 73/28/8 68/29/8 16/56/8
